<?xml version="1.0" standalone="no"?>
<!DOCTYPE svg PUBLIC "-//W3C//DTD SVG 20010904//EN"
 "http://www.w3.org/TR/2001/REC-SVG-20010904/DTD/svg10.dtd">
<svg version="1.0" xmlns="http://www.w3.org/2000/svg"
 width="1001.000000pt" height="1001.000000pt" viewBox="0 0 1001.000000 1001.000000"
 preserveAspectRatio="xMidYMid meet">
<metadata>
Created by potrace 1.11, written by Peter Selinger 2001-2013
</metadata>
<g transform="translate(0.000000,1001.000000) scale(0.100000,-0.100000)"
fill="#000000" stroke="none">
<path d="M3310 9444 c-59 -13 -81 -19 -145 -44 -18 -6 -68 -31 -136 -66 -47
-25 -163 -129 -214 -193 -28 -34 -76 -105 -106 -158 -53 -93 -71 -124 -138
-239 -34 -59 -53 -92 -92 -161 -12 -21 -71 -123 -132 -228 -60 -104 -118 -205
-128 -222 -10 -18 -69 -119 -130 -225 -61 -106 -121 -209 -131 -228 -11 -19
-53 -91 -93 -160 -40 -69 -82 -141 -93 -160 -11 -19 -54 -96 -97 -170 -43 -74
-89 -155 -103 -180 -13 -25 -30 -52 -36 -60 -6 -8 -16 -24 -22 -35 -27 -49
-70 -125 -189 -330 -211 -364 -222 -382 -229 -396 -3 -8 -14 -28 -25 -44 -10
-17 -80 -138 -156 -270 -144 -248 -256 -444 -389 -673 -43 -74 -89 -155 -103
-180 -14 -25 -39 -69 -56 -96 -16 -28 -38 -64 -47 -81 -9 -16 -61 -106 -115
-200 -103 -179 -152 -277 -167 -335 -34 -136 -43 -292 -23 -405 16 -94 76
-239 150 -363 6 -9 25 -44 44 -77 19 -33 100 -172 179 -310 80 -137 159 -275
175 -305 17 -30 38 -66 47 -80 9 -14 32 -52 50 -85 18 -33 114 -199 213 -370
99 -170 191 -330 205 -355 34 -61 270 -471 282 -490 12 -20 68 -116 96 -165
174 -309 235 -404 307 -482 111 -118 253 -202 419 -246 l83 -22 2720 0 c1496
0 2744 4 2774 8 70 10 214 58 277 92 122 68 242 179 314 295 25 39 62 97 83
130 20 33 37 62 37 66 0 3 8 18 19 32 10 15 31 50 46 77 15 28 68 120 117 205
105 179 170 292 298 515 51 88 109 189 130 225 21 36 77 133 124 215 48 83 91
157 96 165 22 37 135 236 139 245 2 6 9 17 16 25 7 8 26 40 42 70 48 86 144
254 152 265 5 6 22 35 38 65 17 30 70 123 118 205 104 178 137 248 165 347 26
94 34 155 33 249 -3 177 -41 294 -169 516 -54 92 -106 184 -117 203 -10 19
-23 40 -27 45 -4 6 -19 30 -32 55 -14 25 -83 144 -153 265 -70 121 -137 238
-150 260 -12 22 -46 81 -75 130 -29 50 -64 110 -78 135 -168 298 -302 523
-330 560 -120 152 -277 255 -470 307 l-97 27 -1522 0 c-838 1 -1523 -2 -1523
-5 0 -4 19 -9 43 -12 213 -29 426 -172 565 -379 18 -26 32 -49 32 -52 0 -3 18
-35 40 -71 22 -36 40 -68 40 -71 0 -3 16 -30 35 -60 19 -30 35 -56 35 -58 0
-2 66 -118 146 -258 80 -139 189 -327 241 -418 52 -91 99 -169 103 -175 4 -5
24 -41 45 -80 21 -38 44 -77 51 -86 8 -8 14 -18 14 -21 0 -4 23 -46 51 -95 28
-48 61 -104 71 -123 11 -19 43 -73 71 -120 27 -47 64 -110 80 -140 17 -30 48
-84 69 -119 21 -34 38 -64 38 -66 0 -2 34 -60 75 -130 41 -69 75 -129 75 -131
0 -3 16 -30 35 -60 19 -30 35 -56 35 -58 0 -3 28 -51 61 -108 34 -57 64 -110
68 -118 3 -8 38 -69 77 -135 39 -66 83 -141 98 -168 l27 -47 -2581 0 c-1419 0
-2580 3 -2580 6 0 11 45 89 53 92 4 2 7 8 7 13 0 6 22 47 48 92 27 45 86 147
132 227 46 80 104 181 130 225 125 214 410 708 447 775 17 30 52 91 78 135 27
44 59 100 73 125 14 25 105 182 202 350 97 168 188 325 202 350 14 25 76 133
138 240 63 107 180 310 260 450 212 366 503 869 550 950 36 61 184 318 208
362 17 29 67 115 111 192 45 76 81 142 81 147 0 5 5 9 10 9 6 0 10 5 10 11 0
6 15 37 34 68 19 31 43 72 54 91 42 75 152 266 162 280 6 8 13 21 17 29 3 8
35 64 71 125 36 61 73 125 82 142 237 417 250 436 349 534 120 118 282 201
461 237 28 6 -537 10 -1485 10 -1254 0 -1542 -2 -1595 -13z"/>
</g>
</svg>
